<?xml version="1.0" encoding="UTF-8" standalone="no"?>
<!DOCTYPE svg PUBLIC "-//W3C//DTD SVG 1.1//EN" "http://www.w3.org/Graphics/SVG/1.1/DTD/svg11.dtd">
<svg width="100%" height="100%" viewBox="0 0 348 128" version="1.1" xmlns="http://www.w3.org/2000/svg" xmlns:xlink="http://www.w3.org/1999/xlink" xml:space="preserve" xmlns:serif="http://www.serif.com/" style="fill-rule:evenodd;clip-rule:evenodd;stroke-linecap:round;stroke-linejoin:round;stroke-miterlimit:1.5;">
    <g transform="matrix(0.666667,0,0,0.666667,-182.492,-312.357)">
        <g transform="matrix(1,0,0,1,-10.3037,35.4418)">
            <path d="M649.671,433.889C649.671,433.889 744.548,433.438 783.572,433.976C822.597,434.514 797.109,473.776 797.109,473.776L690.629,622.917L650.691,622.538L762.386,466.642L650.045,466.156L649.671,433.889Z"/>
            <path d="M535.296,433.594C535.296,433.594 572.255,433.784 605.929,434.097C639.603,434.41 644.112,474.23 644.112,474.23C644.112,474.23 644.775,475.867 644.609,511.463C644.444,547.058 612.042,549.051 612.042,549.051C612.042,549.051 536.921,549.63 520.911,549.63C504.901,549.63 504.486,564.297 504.486,564.297L504.694,593.977L645.033,594.183L644.821,622.848L475.734,622.673C475.734,622.673 475.743,594.768 476.374,557.971C477.005,521.174 514.602,517.873 514.602,517.873C514.602,517.873 591.179,517.496 603.287,517.035C615.395,516.573 614.546,506.997 614.546,506.997C614.546,506.997 613.935,489.817 614.475,478.983C615.015,468.149 602.333,467.432 602.333,467.432L535.155,467.021L535.296,433.594Z"/>
            <path d="M320.558,550.217C320.558,550.217 320.542,558.428 320.715,570.18C320.887,581.933 337.575,586.257 337.575,586.257L439.434,587.023L439.525,623.062C439.525,623.062 385.233,624.492 334.561,621.662C283.889,618.832 284.541,566.955 284.541,566.955L284.963,477.973C288.312,431.91 348.084,433.63 348.084,433.63C348.084,433.63 401.626,433.793 435.138,434.55C468.651,435.306 470.787,472.457 470.787,472.457L471.234,550.163L320.558,550.217ZM320.414,518.881L437.542,518.952L437.829,478.856C437.829,478.856 437.286,467.575 426.571,467.166C415.857,466.757 343.639,467.01 343.639,467.01C343.639,467.01 320.615,469.591 320.918,488.246C321.221,506.902 320.414,518.881 320.414,518.881Z"/>
            <g>
                <g>
                    <path d="M320.558,550.217L471.234,550.163L470.787,472.457C470.787,472.457 468.651,435.306 435.138,434.55C401.626,433.793 348.084,433.63 348.084,433.63C348.084,433.63 288.312,431.91 284.963,477.973L284.541,566.955C284.541,566.955 283.889,618.832 334.561,621.662C385.233,624.492 439.525,623.062 439.525,623.062L439.434,587.023L337.575,586.257C337.575,586.257 320.887,581.933 320.715,570.18C320.542,558.428 320.558,550.217 320.558,550.217Z" style="fill:none;stroke:black;stroke-width:1px;"/>
                    <path d="M320.414,518.881L437.542,518.952L437.829,478.856C437.829,478.856 437.286,467.575 426.571,467.166C415.857,466.757 343.639,467.01 343.639,467.01C343.639,467.01 320.615,469.591 320.918,488.246C321.221,506.902 320.414,518.881 320.414,518.881Z" style="fill:none;stroke:black;stroke-width:1px;"/>
                    <path d="M535.296,433.594L535.155,467.021L602.333,467.432C602.333,467.432 615.015,468.149 614.475,478.983C613.935,489.817 614.546,506.997 614.546,506.997C614.546,506.997 615.395,516.573 603.287,517.035C591.179,517.496 514.602,517.873 514.602,517.873C514.602,517.873 477.005,521.174 476.374,557.971C475.743,594.768 475.734,622.673 475.734,622.673L644.821,622.848L645.033,594.183L504.694,593.977L504.486,564.297C504.486,564.297 504.901,549.63 520.911,549.63C536.921,549.63 612.042,549.051 612.042,549.051C612.042,549.051 644.444,547.058 644.609,511.463C644.775,475.867 644.112,474.23 644.112,474.23C644.112,474.23 639.603,434.41 605.929,434.097C572.255,433.784 535.296,433.594 535.296,433.594Z" style="fill:none;stroke:black;stroke-width:1px;"/>
                    <path d="M649.671,433.889L650.045,466.156L762.386,466.642L650.691,622.538L690.629,622.917L797.109,473.776C797.109,473.776 822.597,434.514 783.572,433.976C744.548,433.438 649.671,433.889 649.671,433.889Z" style="fill:none;stroke:black;stroke-width:1px;"/>
                </g>
            </g>
        </g>
    </g>
</svg>
